# Aspose.3D Wavefront OBJ Exporter
# Copyright 2004-2023 Aspose Pty Ltd.
# File created: 03/06/2023 09:06:46

mtllib material.lib

#
# object Circle
#

v 0 0.01999998 0
v -0.003901779 0.0196157 0
v -0.007653653 0.01847755 0
v -0.01111137 0.01662939 0
v -0.01414209 0.01414209 0
v -0.01662939 0.01111137 0
v -0.01847755 0.007653653 0
v -0.0196157 0.003901779 0
v -0.01999998 0 0
v -0.0196157 -0.003901779 0
v -0.01847755 -0.007653653 0
v -0.01662939 -0.01111137 0
v -0.01414209 -0.01414209 0
v -0.01111137 -0.01662939 0
v -0.007653653 -0.01847755 0
v -0.003901779 -0.0196157 0
v 0 -0.01999998 0
v 0.003901779 -0.0196157 0
v 0.007653653 -0.01847755 0
v 0.01111137 -0.01662933 0
v 0.01414209 -0.01414209 0
v 0.01662939 -0.01111137 0
v 0.01847755 -0.007653653 0
v 0.0196157 -0.003901779 0
v 0.01999998 0 0
v 0.01961564999999999 0.003901779 0
v 0.01847755 0.007653653 0
v 0.01662933 0.01111137 0
v 0.01414209 0.01414215 0
v 0.01111137 0.01662939 0
v 0.007653594 0.01847755 0
v 0.00390172 0.0196157 0
# 32 vertices

vn 0 0 1
# 1 vertex normals

vt 0.402455 0.009607315 0
vt 0.9903927 0.4024553 0
vt 0.5975444 0.9903928 0
vt 0.5975444 0.9903928 0
vt 0.5 1 0
vt 0.4024549 0.9903926 0
vt 0.4024549 0.9903926 0
vt 0.3086583 0.9619397 0
vt 0.5975444 0.9903928 0
vt 0.3086583 0.9619397 0
vt 0.2222148 0.9157348 0
vt 0.5975444 0.9903928 0
vt 0.2222148 0.9157348 0
vt 0.14644660000000002 0.8535534 0
vt 0.08426517 0.7777851 0
vt 0.08426517 0.7777851 0
vt 0.03806024 0.69134169999999992 0
vt 0.2222148 0.9157348 0
vt 0.03806024 0.69134169999999992 0
vt 0.009607374 0.5975452 0
vt 0.2222148 0.9157348 0
vt 0.009607374 0.5975452 0
vt 0 0.50000009999999992 0
vt 0.009607315 0.4024549 0
vt 0.009607315 0.4024549 0
vt 0.03806018 0.3086584 0
vt 0.009607374 0.5975452 0
vt 0.03806018 0.3086584 0
vt 0.08426517 0.2222149 0
vt 0.009607374 0.5975452 0
vt 0.08426517 0.2222149 0
vt 0.14644660000000002 0.14644660000000002 0
vt 0.2222149 0.08426517 0
vt 0.2222149 0.08426517 0
vt 0.3086584 0.03806018 0
vt 0.402455 0.009607315 0
vt 0.402455 0.009607315 0
vt 0.5000002 0 0
vt 0.5975454 0.009607374 0
vt 0.5975454 0.009607374 0
vt 0.69134189999999992 0.03806036 0
vt 0.402455 0.009607315 0
vt 0.69134189999999992 0.03806036 0
vt 0.7777854 0.08426535 0
vt 0.402455 0.009607315 0
vt 0.7777854 0.08426535 0
vt 0.8535537 0.14644679999999998 0
vt 0.915735 0.2222151 0
vt 0.915735 0.2222151 0
vt 0.9619399 0.3086587 0
vt 0.9903927 0.4024553 0
vt 0.9903927 0.4024553 0
vt 1 0.50000049999999992 0
vt 0.9903925 0.59754569999999992 0
vt 0.9903925 0.59754569999999992 0
vt 0.9619396 0.6913422 0
vt 0.9157345 0.7777857 0
vt 0.9157345 0.7777857 0
vt 0.8535529 0.8535538 0
vt 0.5975444 0.9903928 0
vt 0.8535529 0.8535538 0
vt 0.7777846 0.9157352 0
vt 0.5975444 0.9903928 0
vt 0.7777846 0.9157352 0
vt 0.69134110000000008 0.9619401 0
vt 0.5975444 0.9903928 0
vt 0.08426517 0.2222149 0
vt 0.2222149 0.08426517 0
vt 0.402455 0.009607315 0
vt 0.7777854 0.08426535 0
vt 0.915735 0.2222151 0
vt 0.9903927 0.4024553 0
vt 0.9903927 0.4024553 0
vt 0.9903925 0.59754569999999992 0
vt 0.5975444 0.9903928 0
vt 0.9903925 0.59754569999999992 0
vt 0.9157345 0.7777857 0
vt 0.5975444 0.9903928 0
vt 0.5975444 0.9903928 0
vt 0.2222148 0.9157348 0
vt 0.009607374 0.5975452 0
vt 0.009607374 0.5975452 0
vt 0.08426517 0.2222149 0
vt 0.5975444 0.9903928 0
vt 0.08426517 0.2222149 0
vt 0.402455 0.009607315 0
vt 0.5975444 0.9903928 0
vt 0.402455 0.009607315 0
vt 0.7777854 0.08426535 0
vt 0.9903927 0.4024553 0
# 90 texture coords

g Circle
usemtl Material.001
s 1
f 16/1/1 24/2/1 32/3/1
f 32/4/1 1/5/1 2/6/1
f 2/7/1 3/8/1 32/9/1
f 3/10/1 4/11/1 32/12/1
f 4/13/1 5/14/1 6/15/1
f 6/16/1 7/17/1 4/18/1
f 7/19/1 8/20/1 4/21/1
f 8/22/1 9/23/1 10/24/1
f 10/25/1 11/26/1 8/27/1
f 11/28/1 12/29/1 8/30/1
f 12/31/1 13/32/1 14/33/1
f 14/34/1 15/35/1 16/36/1
f 16/37/1 17/38/1 18/39/1
f 18/40/1 19/41/1 16/42/1
f 19/43/1 20/44/1 16/45/1
f 20/46/1 21/47/1 22/48/1
f 22/49/1 23/50/1 24/51/1
f 24/52/1 25/53/1 26/54/1
f 26/55/1 27/56/1 28/57/1
f 28/58/1 29/59/1 32/60/1
f 29/61/1 30/62/1 32/63/1
f 30/64/1 31/65/1 32/66/1
f 12/67/1 14/68/1 16/69/1
f 20/70/1 22/71/1 24/72/1
f 24/73/1 26/74/1 32/75/1
f 26/76/1 28/77/1 32/78/1
f 32/79/1 4/80/1 8/81/1
f 8/82/1 12/83/1 32/84/1
f 12/85/1 16/86/1 32/87/1
f 16/88/1 20/89/1 24/90/1
#30 polygons

